<svg xmlns="http://www.w3.org/2000/svg" width="90" height="90" viewBox="0 0 90 90"><g transform="translate(-72)"><circle cx="45" cy="45" r="45" transform="translate(72)" fill="#e8edf2"/><g transform="translate(-2.57 -737.693)"><path d="M7.123,37.993a.792.792,0,0,1-.79-.792V31.757A17.836,17.836,0,0,1,0,18.208,18.633,18.633,0,0,1,18.621,0c.125,0,.25,0,.376,0s.251,0,.376,0a18.632,18.632,0,0,1,18.62,18.208A18.632,18.632,0,0,1,19.374,36.413c-.127,0-.251,0-.376,0h-.044a19.505,19.505,0,0,1-7-1.292L7.544,37.873A.79.79,0,0,1,7.123,37.993ZM21.9,7.907a.18.18,0,0,0-.148.081L13.341,19.021a.408.408,0,0,0-.024.421.35.35,0,0,0,.312.192h4.956l-2.4,8.561a.2.2,0,0,0,.039.169.187.187,0,0,0,.142.069.179.179,0,0,0,.148-.081l8.414-11.03a.421.421,0,0,0,.019-.43.347.347,0,0,0-.307-.187H19.685l2.4-8.561a.2.2,0,0,0-.039-.168A.19.19,0,0,0,21.9,7.907Z" transform="translate(100.573 763.696)" fill="#9fa2b0"/></g></g></svg>